<?xml version="1.0" encoding="UTF-8"?>
<svg id="Layer_2" data-name="Layer 2" xmlns="http://www.w3.org/2000/svg" viewBox="0 0 203.18 53.01">
  <g id="Layer_1-2" data-name="Layer 1">
    <g>
      <g>
        <g>
          <path d="M78.91,7.91v3.36h-5.28v14.14h-3.94v-14.14h-5.28v-3.36h14.5Z"/>
          <path d="M81.19,25.41V6.42l3.76-.61v6.37c.25-.08.58-.16.97-.24.4-.08.78-.11,1.15-.11,1.08,0,1.97.15,2.69.44.72.3,1.29.71,1.72,1.25.43.54.73,1.18.91,1.92.18.74.26,1.57.26,2.48v7.5h-3.76v-7.05c0-1.21-.16-2.07-.47-2.58-.31-.51-.89-.76-1.73-.76-.34,0-.65.03-.95.09-.3.06-.56.12-.8.19v10.1h-3.76Z"/>
          <path d="M100.18,8.28c0,.69-.22,1.23-.67,1.63-.45.4-.97.59-1.58.59s-1.13-.2-1.58-.59c-.45-.4-.67-.94-.67-1.63s.22-1.23.67-1.63c.45-.4.97-.59,1.58-.59s1.13.2,1.58.59c.45.4.67.94.67,1.63ZM99.83,25.41h-3.76v-13.29h3.76v13.29Z"/>
          <path d="M103.36,12.58c.64-.19,1.47-.36,2.48-.52,1.01-.16,2.07-.24,3.18-.24s2.07.15,2.82.44c.75.3,1.34.71,1.78,1.25.44.54.75,1.18.93,1.92.18.74.28,1.57.28,2.48v7.5h-3.76v-7.05c0-1.21-.16-2.07-.48-2.58-.32-.51-.92-.76-1.79-.76-.27,0-.56.01-.86.04-.3.03-.57.05-.81.09v10.25h-3.76v-12.83Z"/>
          <path d="M129.71,23.74c0,2.17-.55,3.78-1.65,4.84-1.1,1.05-2.81,1.58-5.12,1.58-.81,0-1.62-.07-2.42-.21-.81-.14-1.56-.33-2.25-.57l.66-3.16c.59.24,1.21.42,1.86.56.65.13,1.38.2,2.21.2,1.08,0,1.84-.24,2.29-.71.45-.47.67-1.08.67-1.82v-.48c-.4.19-.82.32-1.25.42-.43.09-.9.14-1.4.14-1.84,0-3.24-.54-4.22-1.63-.98-1.09-1.46-2.61-1.46-4.56,0-.98.15-1.86.45-2.66.3-.8.74-1.49,1.33-2.06.58-.57,1.29-1.01,2.13-1.33.84-.31,1.79-.47,2.85-.47.45,0,.92.02,1.4.06.48.04.96.1,1.43.16.47.07.92.15,1.35.24.43.09.81.19,1.15.29v11.16ZM121.45,18.34c0,2.11.85,3.16,2.55,3.16.39,0,.75-.05,1.09-.15.34-.1.62-.22.86-.35v-6.01c-.19-.03-.4-.06-.66-.09-.25-.03-.55-.04-.88-.04-.99,0-1.73.33-2.22.99-.49.66-.73,1.49-.73,2.5Z"/>
          <path d="M137.36,8.28c0,.69-.22,1.23-.67,1.63-.45.4-.97.59-1.58.59s-1.13-.2-1.58-.59c-.45-.4-.67-.94-.67-1.63s.22-1.23.67-1.63c.45-.4.97-.59,1.58-.59s1.13.2,1.58.59c.45.4.67.94.67,1.63ZM137.01,25.41h-3.76v-13.29h3.76v13.29Z"/>
          <path d="M143.77,25.41c-.86-1.68-1.74-3.65-2.62-5.91-.89-2.26-1.73-4.71-2.52-7.38h3.99c.17.66.37,1.37.6,2.13.23.77.46,1.54.71,2.32.25.78.49,1.54.74,2.29.25.74.49,1.41.72,2.02.22-.61.46-1.28.71-2.02.25-.74.5-1.5.75-2.29.25-.78.48-1.56.71-2.32.23-.77.43-1.48.6-2.13h3.89c-.79,2.66-1.63,5.12-2.52,7.38-.89,2.26-1.76,4.23-2.62,5.91h-3.12Z"/>
          <path d="M153.04,18.87c0-1.18.18-2.21.54-3.09.36-.88.84-1.62,1.43-2.21.59-.59,1.27-1.04,2.03-1.34.77-.3,1.55-.45,2.36-.45,1.89,0,3.38.58,4.47,1.73s1.64,2.85,1.64,5.09c0,.22,0,.46-.03.72-.02.26-.03.49-.05.69h-8.54c.08.77.45,1.39,1.09,1.84.64.45,1.5.68,2.58.68.69,0,1.37-.06,2.03-.19.66-.13,1.21-.28,1.63-.47l.51,3.06c-.2.1-.47.2-.81.3-.34.1-.71.19-1.12.27-.41.08-.86.14-1.33.19-.47.05-.94.08-1.42.08-1.2,0-2.23-.18-3.12-.53-.88-.35-1.62-.84-2.2-1.45-.58-.61-1.01-1.34-1.29-2.18-.28-.84-.42-1.75-.42-2.73ZM161.88,17.43c-.02-.32-.07-.63-.16-.93s-.24-.57-.43-.81c-.19-.24-.44-.43-.73-.58-.29-.15-.66-.23-1.1-.23s-.78.07-1.09.22c-.3.14-.56.33-.76.57-.2.24-.36.51-.47.82-.11.31-.19.63-.24.95h4.98Z"/>
          <path d="M176.43,15.46c-.34-.08-.73-.17-1.19-.27-.46-.09-.94-.14-1.47-.14-.24,0-.52.02-.85.06-.33.04-.58.09-.75.14v10.15h-3.76v-12.58c.67-.24,1.47-.46,2.39-.67.92-.21,1.94-.32,3.07-.32.2,0,.45.01.73.04.29.03.57.06.86.1.29.04.57.09.86.15.29.06.53.13.73.21l-.63,3.11Z"/>
          <path d="M182.9,22.71c.69,0,1.18-.07,1.47-.2.29-.13.43-.4.43-.78,0-.3-.19-.57-.56-.8-.37-.23-.93-.48-1.69-.77-.59-.22-1.12-.45-1.6-.68s-.89-.52-1.23-.85c-.34-.33-.6-.72-.78-1.17-.19-.45-.28-1-.28-1.64,0-1.25.46-2.23,1.39-2.96.93-.72,2.2-1.09,3.81-1.09.81,0,1.58.07,2.32.21.74.14,1.33.3,1.77.47l-.66,2.93c-.44-.15-.91-.29-1.43-.4-.51-.12-1.09-.18-1.73-.18-1.18,0-1.77.33-1.77.98,0,.15.03.29.08.4.05.12.15.23.3.34.15.11.36.23.62.36.26.13.59.27,1,.42.82.31,1.51.61,2.05.9.54.3.96.62,1.28.96.31.34.53.73.66,1.15.13.42.19.91.19,1.46,0,1.31-.49,2.3-1.48,2.97-.98.67-2.38,1.01-4.18,1.01-1.18,0-2.16-.1-2.94-.3-.78-.2-1.33-.37-1.63-.51l.63-3.06c.64.25,1.3.45,1.97.59.67.14,1.34.21,2,.21Z"/>
          <path d="M190.7,18.87c0-1.18.18-2.21.54-3.09.36-.88.84-1.62,1.43-2.21.59-.59,1.27-1.04,2.03-1.34.77-.3,1.55-.45,2.36-.45,1.89,0,3.38.58,4.47,1.73s1.64,2.85,1.64,5.09c0,.22,0,.46-.03.72-.02.26-.03.49-.05.69h-8.54c.08.77.45,1.39,1.09,1.84.64.45,1.5.68,2.58.68.69,0,1.37-.06,2.03-.19.66-.13,1.21-.28,1.63-.47l.51,3.06c-.2.1-.47.2-.81.3-.34.1-.71.19-1.12.27-.41.08-.86.14-1.33.19-.47.05-.94.08-1.42.08-1.2,0-2.23-.18-3.12-.53-.88-.35-1.62-.84-2.2-1.45-.58-.61-1.01-1.34-1.29-2.18-.28-.84-.42-1.75-.42-2.73ZM199.54,17.43c-.02-.32-.07-.63-.16-.93s-.24-.57-.43-.81c-.19-.24-.44-.43-.73-.58-.29-.15-.66-.23-1.1-.23s-.78.07-1.09.22c-.3.14-.56.33-.76.57-.2.24-.36.51-.47.82-.11.31-.19.63-.24.95h4.98Z"/>
        </g>
        <g>
          <path d="M72.81,41.68c0,.91-.14,1.69-.43,2.37-.28.67-.68,1.23-1.2,1.68-.51.45-1.13.78-1.84,1.01s-1.5.34-2.35.34c-.43,0-.88-.02-1.34-.07-.47-.05-.88-.11-1.24-.21v-10.2c.36-.1.77-.18,1.24-.22.47-.05.92-.07,1.34-.07.85,0,1.64.11,2.35.34s1.33.56,1.84,1.01c.51.45.91,1.01,1.2,1.68.28.67.43,1.46.43,2.35ZM65.45,46.06c.06.01.22.03.47.06.25.03.65.05,1.2.05.76,0,1.43-.1,2-.31.57-.21,1.05-.51,1.43-.89.39-.39.68-.86.87-1.41.19-.55.29-1.18.29-1.87s-.1-1.31-.29-1.86c-.19-.55-.48-1.02-.87-1.4-.39-.39-.87-.68-1.43-.89-.57-.21-1.24-.31-2-.31-.55,0-.95.02-1.2.05-.25.03-.4.05-.47.06v8.75Z"/>
          <path d="M82.14,46.98c-.2-.52-.39-1.02-.56-1.5-.17-.48-.33-.95-.49-1.4h-5.17c-.18.46-.35.93-.52,1.41s-.35.98-.54,1.49h-1.08c.4-1.1.78-2.13,1.14-3.08.36-.95.71-1.85,1.05-2.7.34-.85.68-1.66,1.02-2.45.34-.78.7-1.57,1.07-2.35h.92c.37.78.73,1.57,1.06,2.35.33.78.67,1.6,1.02,2.45.34.85.69,1.75,1.05,2.7.35.95.74,1.98,1.17,3.08h-1.15ZM78.5,37.59c-.38.88-.76,1.77-1.12,2.68s-.74,1.88-1.13,2.93h4.52c-.39-1.05-.77-2.03-1.14-2.93-.37-.91-.75-1.8-1.13-2.67Z"/>
          <path d="M91.85,39.57c0,.79-.21,1.42-.63,1.88s-.97.79-1.65.99c.16.2.37.48.63.82.26.35.53.72.8,1.14.27.41.54.84.81,1.29.26.45.49.88.67,1.28h-1.11c-.21-.41-.45-.81-.7-1.22-.25-.41-.5-.8-.76-1.18s-.51-.73-.76-1.06c-.24-.33-.46-.61-.64-.85-.33.03-.65.05-.98.05h-1.71v4.27h-1.04v-10.38c.37-.1.8-.18,1.29-.22.49-.05.95-.07,1.37-.07,1.46,0,2.55.27,3.29.82.74.55,1.11,1.36,1.11,2.44ZM87.57,37.21c-.39,0-.72.01-1.02.04s-.53.05-.73.07v4.5h1.44c.48,0,.93-.02,1.36-.07.43-.05.8-.15,1.11-.31.32-.16.56-.38.75-.68.18-.29.28-.7.28-1.21,0-.47-.09-.86-.28-1.16-.18-.31-.42-.55-.72-.72-.3-.18-.63-.3-1.02-.37-.38-.07-.78-.1-1.18-.1Z"/>
          <path d="M94.23,46.98v-10.58h6.11v.9h-5.07v3.68h4.52v.89h-4.52v4.21h5.47v.9h-6.5Z"/>
          <path d="M112.9,36.4v.9h-3.39v9.68h-1.04v-9.68h-3.39v-.9h7.82Z"/>
          <path d="M123.8,41.68c0,.91-.13,1.7-.4,2.4-.26.69-.62,1.27-1.08,1.73-.45.46-.98.81-1.58,1.05s-1.24.35-1.91.35-1.31-.12-1.91-.35-1.13-.58-1.58-1.05c-.45-.46-.81-1.04-1.08-1.73-.26-.69-.4-1.49-.4-2.4s.13-1.7.4-2.39c.26-.69.62-1.26,1.08-1.73.45-.46.98-.81,1.58-1.05s1.24-.35,1.91-.35,1.31.12,1.91.35,1.13.58,1.58,1.05c.45.46.81,1.04,1.08,1.73.26.69.4,1.48.4,2.39ZM122.7,41.68c0-.71-.09-1.35-.28-1.92s-.44-1.05-.78-1.44c-.34-.4-.74-.7-1.21-.91s-1-.31-1.6-.31-1.12.1-1.6.31-.88.51-1.21.91c-.34.4-.6.88-.78,1.44s-.27,1.2-.27,1.92.09,1.35.27,1.92c.18.56.44,1.05.78,1.44.34.4.74.7,1.21.92.47.21,1.01.32,1.6.32s1.12-.11,1.6-.32c.47-.21.88-.52,1.21-.92.34-.4.6-.88.78-1.44.18-.56.28-1.2.28-1.92Z"/>
          <path d="M132.13,47.07c-.17,0-.37,0-.6-.02-.23-.02-.46-.04-.7-.06-.24-.02-.47-.06-.68-.09-.21-.04-.4-.07-.55-.11v-10.18c.18-.05.39-.09.61-.13.22-.04.46-.07.7-.09.24-.03.47-.04.7-.05.23-.01.44-.02.63-.02.57,0,1.11.05,1.63.14.51.09.96.24,1.35.46.39.21.69.5.92.85s.34.78.34,1.3c0,.57-.14,1.05-.43,1.46s-.68.68-1.17.83c.31.07.59.17.84.31.25.13.48.3.67.51.19.21.34.46.45.76.11.3.16.66.16,1.08,0,1-.4,1.76-1.19,2.29-.79.52-2.02.79-3.68.79ZM130.64,41.01h2.02c.38,0,.73-.03,1.07-.08.34-.06.63-.16.88-.3.25-.15.45-.34.59-.59.14-.25.21-.56.21-.95,0-.34-.08-.64-.23-.87s-.37-.43-.65-.59-.61-.26-1-.33c-.39-.07-.81-.1-1.28-.1-.38,0-.69.01-.95.03-.26.02-.48.05-.65.08v3.71ZM130.64,41.89v4.18c.15.02.38.04.69.07.31.03.62.04.93.04.47,0,.92-.03,1.37-.09s.83-.17,1.17-.34.61-.39.81-.67c.2-.29.31-.65.31-1.1,0-.41-.07-.75-.21-1.02-.14-.27-.35-.48-.61-.64-.26-.16-.59-.27-.97-.33-.38-.06-.81-.09-1.27-.09h-2.2Z"/>
          <path d="M139.22,46.98v-10.58h6.11v.9h-5.07v3.68h4.52v.89h-4.52v4.21h5.47v.9h-6.5Z"/>
          <path d="M157.95,36.4h1.04v10.58h-1.04v-5.08h-5.74v5.08h-1.04v-10.58h1.04v4.6h5.74v-4.6Z"/>
          <path d="M165.55,47.2c-.7,0-1.3-.11-1.79-.32s-.89-.51-1.2-.89-.53-.82-.66-1.32c-.14-.5-.21-1.05-.21-1.63v-6.66h1.04v6.52c0,.58.07,1.08.21,1.5.14.42.33.77.57,1.05.24.27.54.48.89.61.35.13.73.2,1.16.2s.81-.07,1.16-.2.64-.34.89-.61c.24-.27.44-.62.57-1.05.14-.42.21-.92.21-1.5v-6.52h1.04v6.66c0,.58-.07,1.12-.21,1.63-.14.5-.36.94-.66,1.32s-.7.67-1.2.89-1.09.32-1.79.32Z"/>
          <path d="M176.88,45.45c-.1-.25-.25-.59-.44-1.01-.19-.42-.4-.87-.64-1.37-.24-.49-.48-1-.72-1.53-.25-.52-.48-1.02-.71-1.47-.23-.46-.42-.86-.6-1.21-.17-.35-.3-.59-.38-.73-.13,1.27-.24,2.65-.31,4.14-.08,1.49-.14,3.06-.21,4.69h-1.02c.09-1.92.2-3.77.31-5.53.12-1.76.26-3.44.44-5.05h.92c.31.51.63,1.1.98,1.76.35.67.69,1.36,1.03,2.08.34.72.67,1.42.99,2.12.32.7.6,1.33.85,1.89.24-.56.53-1.19.85-1.89.32-.7.65-1.4.99-2.12.34-.72.69-1.41,1.03-2.08.35-.67.67-1.25.98-1.76h.87c.17,1.61.32,3.29.43,5.05.12,1.76.22,3.6.31,5.53h-1.05c-.06-1.64-.13-3.2-.21-4.69-.08-1.49-.18-2.87-.31-4.14-.08.14-.21.39-.38.73-.17.35-.37.75-.6,1.21-.22.46-.46.95-.7,1.47-.24.52-.48,1.03-.72,1.53-.23.49-.45.95-.63,1.37s-.33.75-.43,1.01h-.93Z"/>
          <path d="M192.45,46.98c-.2-.52-.39-1.02-.56-1.5-.17-.48-.33-.95-.49-1.4h-5.17c-.18.46-.35.93-.52,1.41-.17.48-.35.98-.54,1.49h-1.08c.4-1.1.78-2.13,1.14-3.08.36-.95.71-1.85,1.05-2.7.34-.85.68-1.66,1.02-2.45.34-.78.7-1.57,1.07-2.35h.92c.37.78.73,1.57,1.06,2.35.33.78.67,1.6,1.02,2.45.34.85.69,1.75,1.05,2.7.35.95.74,1.98,1.17,3.08h-1.15ZM188.81,37.59c-.38.88-.76,1.77-1.12,2.68-.36.9-.74,1.88-1.13,2.93h4.52c-.39-1.05-.77-2.03-1.14-2.93s-.75-1.8-1.13-2.67Z"/>
          <path d="M202.31,46.98c-.2-.35-.44-.77-.74-1.25-.3-.48-.63-.99-.99-1.53-.36-.54-.74-1.1-1.14-1.68-.39-.58-.79-1.14-1.18-1.68s-.77-1.06-1.15-1.53c-.37-.48-.71-.89-1-1.24v8.91h-1.02v-10.58h.82c.52.58,1.08,1.25,1.67,2.01.59.76,1.18,1.53,1.75,2.32.57.79,1.1,1.56,1.6,2.31.49.75.9,1.41,1.22,1.97v-8.61h1.02v10.58h-.87Z"/>
        </g>
      </g>
      <path d="M51.32,0H1.7C.76,0,0,.76,0,1.7v49.62c0,.94.76,1.7,1.7,1.7h17.28c.94,0,1.7-.76,1.7-1.7v-29.67c0-.23-.19-.42-.42-.42H7.03c-.23,0-.42-.19-.42-.42v-10.82c0-.23.19-.42.42-.42h38.96c.23,0,.42.19.42.42v10.82c0,.23-.19.42-.42.42h-13.22c-.23,0-.42.19-.42.42v29.67c0,.94.76,1.7,1.7,1.7h17.28c.94,0,1.7-.76,1.7-1.7V1.7c0-.94-.76-1.7-1.7-1.7Z"/>
    </g>
  </g>
</svg>